<?xml version="1.0" encoding="UTF-8"?>
<svg width="200px" height="200px" viewBox="0 0 200 200" version="1.1" xmlns="http://www.w3.org/2000/svg" xmlns:xlink="http://www.w3.org/1999/xlink">
    <title>Artboard</title>
    <g id="Artboard" stroke="none" stroke-width="1" fill="none" fill-rule="evenodd">
        <g id="Tank" transform="translate(41.000000, 13.000000)" fill="#D8D8D8" stroke="#979797">
            <g id="Group" transform="translate(0.000000, 30.000000)">
                <g id="Group-2" transform="translate(13.500000, 72.500000) rotate(-180.000000) translate(-13.500000, -72.500000) ">
                    <rect id="Rectangle" x="0" y="0" width="27" height="145"></rect>
                    <g id="Group" transform="translate(0.000000, 4.000000)">
                        <rect id="Rectangle" x="0" y="0" width="27" height="14"></rect>
                        <rect id="Rectangle" x="0" y="29" width="27" height="14"></rect>
                        <rect id="Rectangle" x="0" y="58" width="27" height="14"></rect>
                        <rect id="Rectangle" x="0" y="87" width="27" height="14"></rect>
                        <rect id="Rectangle" x="0" y="116" width="27" height="14"></rect>
                    </g>
                </g>
            </g>
            <g id="Group" transform="translate(90.000000, 30.000000)">
                <g id="Group-2" transform="translate(13.500000, 72.500000) rotate(-180.000000) translate(-13.500000, -72.500000) ">
                    <rect id="Rectangle" x="0" y="0" width="27" height="145"></rect>
                    <g id="Group" transform="translate(0.000000, 4.000000)">
                        <rect id="Rectangle" x="0" y="0" width="27" height="14"></rect>
                        <rect id="Rectangle" x="0" y="29" width="27" height="14"></rect>
                        <rect id="Rectangle" x="0" y="58" width="27" height="14"></rect>
                        <rect id="Rectangle" x="0" y="87" width="27" height="14"></rect>
                        <rect id="Rectangle" x="0" y="116" width="27" height="14"></rect>
                    </g>
                </g>
            </g>
            <rect id="Rectangle" x="16" y="46" width="86" height="113" rx="8"></rect>
            <rect id="Rectangle" x="54" y="0" width="11" height="112" rx="5.5"></rect>
            <rect id="Rectangle" x="36" y="90" width="47" height="51" rx="8"></rect>
            <circle id="Oval" cx="49" cy="115" r="5"></circle>
            <circle id="Oval-Copy" cx="70" cy="115" r="5"></circle>
        </g>
    </g>
</svg>